<svg xmlns="http://www.w3.org/2000/svg" xmlns:xlink="http://www.w3.org/1999/xlink" width="500" zoomAndPan="magnify" viewBox="0 0 375 374.999991" height="500" preserveAspectRatio="xMidYMid meet" version="1.0"><path stroke-linecap="butt" transform="matrix(0.53033, 0.53033, -0.53033, 0.53033, 125.223716, 182.471414)" fill="none" stroke-linejoin="miter" d="M 0.000171408 5.003478 L 84.433146 5.003478 " stroke="#0f172a" stroke-width="10" stroke-opacity="1" stroke-miterlimit="4"/><path stroke-linecap="butt" transform="matrix(-0.53033, 0.53033, -0.53033, -0.53033, 170.542083, 147.754224)" fill="none" stroke-linejoin="miter" d="M -0.00113467 5.000772 L 82.465199 5.000772 " stroke="#0f172a" stroke-width="10" stroke-opacity="1" stroke-miterlimit="4"/><path stroke-linecap="butt" transform="matrix(-0.53033, -0.53033, 0.53033, -0.53033, 249.762967, 192.525691)" fill="none" stroke-linejoin="miter" d="M -0.000381502 4.998572 L 84.432593 4.998572 " stroke="#0f172a" stroke-width="10" stroke-opacity="1" stroke-miterlimit="4"/><path stroke-linecap="butt" transform="matrix(0.53033, -0.53033, 0.53033, 0.53033, 204.445143, 227.243423)" fill="none" stroke-linejoin="miter" d="M 0.00132503 5.000302 L 82.460293 5.000302 " stroke="#0f172a" stroke-width="10" stroke-opacity="1" stroke-miterlimit="4"/><path stroke-linecap="butt" transform="matrix(-0.526239, 0.53439, -0.53439, -0.526239, 193.792141, 102.739695)" fill="none" stroke-linejoin="miter" d="M -0.000674372 7.001848 L 114.992316 6.997922 " stroke="#0f172a" stroke-width="14" stroke-opacity="1" stroke-miterlimit="4"/><path stroke-linecap="butt" transform="matrix(-0.53439, -0.526239, 0.526239, -0.53439, 241.343573, 164.097337)" fill="none" stroke-linejoin="miter" d="M 0.000976442 7.001174 L 112.312763 6.998741 " stroke="#0f172a" stroke-width="14" stroke-opacity="1" stroke-miterlimit="4"/><path stroke-linecap="butt" transform="matrix(0.526239, -0.53439, 0.53439, 0.526239, 181.195817, 272.258682)" fill="none" stroke-linejoin="miter" d="M 0.00179719 7.000019 L 114.991076 6.999747 " stroke="#0f172a" stroke-width="14" stroke-opacity="1" stroke-miterlimit="4"/><path stroke-linecap="butt" transform="matrix(0.53439, 0.526239, -0.526239, 0.53439, 133.641836, 210.898462)" fill="none" stroke-linejoin="miter" d="M 0.000269346 7.002421 L 112.312056 6.999989 " stroke="#0f172a" stroke-width="14" stroke-opacity="1" stroke-miterlimit="4"/></svg>